<svg xmlns="http://www.w3.org/2000/svg" xmlns:xlink="http://www.w3.org/1999/xlink" width="150" zoomAndPan="magnify" viewBox="0 0 450 449.999984" height="150" preserveAspectRatio="xMidYMid meet" version="1.0"><path fill="#ff3131" d="M 392.84375 131.90625 C 388.394531 125.921875 380.78125 123.007812 374.789062 118.910156 C 359.695312 108.539062 345.3125 96.09375 335.894531 80.234375 C 327.597656 66.234375 325.8125 48.84375 315.527344 35.972656 C 305.03125 22.839844 287.429688 19.378906 271.5625 22.601562 C 255.050781 25.910156 241.277344 36.488281 228.96875 47.648438 C 222.804688 33.316406 206.472656 25.246094 191.121094 26.078125 C 171.210938 27.113281 154.605469 40.015625 143.132812 55.511719 C 129.847656 73.433594 122.785156 94.859375 111.84375 114.117188 C 106.660156 123.226562 100.589844 131.855469 92.800781 138.917969 C 89.015625 142.363281 84.867188 145.292969 80.355469 147.710938 C 75.691406 150.199219 70.703125 152.335938 67.050781 156.308594 C 58.578125 165.488281 64 174.71875 70.339844 183.128906 L 92.117188 212.074219 C 83.179688 225.242188 75.84375 239.25 70.109375 254.101562 C 53.359375 298.09375 55.828125 350.707031 87.875 387.359375 C 116.769531 420.402344 169.582031 430.609375 205.425781 402.636719 C 225.378906 387.082031 236.144531 365.808594 243.496094 342.785156 C 275.421875 343.667969 300.539062 318.929688 315.816406 293.003906 C 335.386719 259.867188 343.144531 220.640625 366.355469 189.519531 C 376.011719 176.574219 388.796875 164.804688 394.265625 149.183594 C 396.234375 143.5 396.628906 136.988281 392.84375 131.90625 Z M 222.828125 370.777344 C 211.542969 389.734375 194.691406 405.003906 172.691406 409.785156 C 151.398438 414.386719 128.386719 409.183594 110.308594 397.335938 C 70.898438 371.410156 60.371094 318.652344 70.980469 275.257812 C 77.753906 247.609375 91.878906 222.261719 109.429688 200.015625 C 118.097656 189.140625 127.371094 178.808594 137.253906 169.023438 C 147.273438 159.007812 157.1875 148.632812 169.40625 141.457031 C 171.546875 143.011719 173.84375 144.277344 176.304688 145.257812 C 178.761719 146.238281 181.300781 146.898438 183.925781 147.246094 C 195.726562 148.882812 207.125 144.207031 217.214844 138.386719 C 172.828125 176.617188 136.527344 231.769531 138.363281 292.152344 C 138.363281 292.375 138.40625 292.59375 138.492188 292.800781 C 138.578125 293.007812 138.699219 293.1875 138.859375 293.347656 C 139.015625 293.507812 139.199219 293.628906 139.40625 293.714844 C 139.613281 293.800781 139.828125 293.84375 140.054688 293.84375 C 140.277344 293.84375 140.492188 293.800781 140.699219 293.714844 C 140.90625 293.628906 141.089844 293.507812 141.25 293.347656 C 141.40625 293.1875 141.53125 293.007812 141.617188 292.800781 C 141.703125 292.59375 141.746094 292.375 141.746094 292.152344 C 144.855469 261.640625 153.953125 231.574219 169.476562 205.035156 C 183.601562 180.921875 202.40625 159.867188 223.605469 141.769531 C 224.539062 142.367188 225.496094 142.921875 226.476562 143.4375 C 227.460938 143.953125 228.460938 144.425781 229.484375 144.855469 C 230.503906 145.285156 231.542969 145.671875 232.597656 146.011719 C 233.65625 146.351562 234.722656 146.644531 235.804688 146.890625 C 236.882812 147.140625 237.972656 147.339844 239.070312 147.496094 C 240.167969 147.648438 241.269531 147.757812 242.378906 147.816406 C 243.484375 147.875 244.59375 147.886719 245.699219 147.851562 C 246.808594 147.816406 247.914062 147.734375 249.015625 147.601562 C 250.113281 147.472656 251.207031 147.292969 252.292969 147.070312 C 253.378906 146.84375 254.453125 146.574219 255.515625 146.257812 C 256.578125 145.941406 257.625 145.578125 258.65625 145.171875 C 259.6875 144.761719 260.699219 144.3125 261.691406 143.820312 C 262.683594 143.324219 263.652344 142.789062 264.597656 142.210938 C 265.546875 141.632812 266.464844 141.015625 267.359375 140.359375 C 268.25 139.703125 269.113281 139.007812 269.949219 138.277344 C 270.78125 137.546875 271.582031 136.78125 272.351562 135.980469 C 286.445312 146.914062 306.492188 148.5 321.71875 138.800781 C 329.890625 141.492188 338.261719 143.246094 346.828125 144.070312 C 338.390625 149.433594 330.359375 155.347656 322.738281 161.8125 C 315.117188 168.28125 307.976562 175.242188 301.3125 182.691406 C 294.648438 190.144531 288.53125 198.019531 282.953125 206.3125 C 277.375 214.609375 272.390625 223.246094 268.003906 232.226562 C 257.28125 254.277344 251.492188 277.726562 246.226562 301.558594 C 240.957031 325.390625 235.4375 349.589844 222.828125 370.777344 Z M 161.824219 132.796875 C 162.808594 134.566406 163.980469 136.203125 165.339844 137.703125 C 154.675781 143.398438 146.214844 151.1875 137.335938 159.667969 C 128.613281 167.964844 120.171875 176.648438 112.28125 185.773438 C 111.816406 183.410156 111.035156 181.15625 109.9375 179.011719 C 107.46875 174.375 103.082031 171.753906 99.210938 168.421875 C 97.222656 166.722656 94.722656 164.460938 94.027344 161.804688 C 93.074219 158.105469 96.453125 155.398438 98.839844 153.167969 C 103.679688 148.617188 108.566406 144.074219 113.503906 139.539062 C 118.046875 135.308594 122.992188 130.203125 128.304688 125.363281 C 136.007812 135.339844 150.457031 137.992188 161.824219 132.796875 Z M 132.378906 121.722656 C 145.085938 110.757812 159.699219 102.078125 175.9375 108.0625 C 186.070312 111.785156 194.378906 117.613281 205.519531 118.195312 C 217.03125 118.808594 228.261719 115.1875 238.882812 111.164062 C 249.503906 107.140625 260.660156 101.828125 272.121094 101.640625 C 277.734375 101.570312 283.167969 103.011719 286.964844 107.386719 C 290.1875 111.113281 291.972656 115.882812 294.742188 119.925781 C 299.441406 126.78125 305.996094 131.78125 313.410156 135.433594 C 300.507812 140.835938 284.828125 138.957031 274.238281 129.210938 C 273.046875 128.109375 270.816406 127.820312 269.652344 129.210938 C 257.042969 144.445312 234.859375 145.597656 221.042969 131.285156 C 220.78125 131.027344 220.488281 130.820312 220.15625 130.660156 C 219.828125 130.5 219.480469 130.394531 219.117188 130.347656 C 218.753906 130.300781 218.394531 130.3125 218.035156 130.386719 C 217.675781 130.457031 217.335938 130.582031 217.019531 130.765625 C 208.234375 136.054688 198.558594 141.085938 187.980469 140.886719 C 179.070312 140.722656 169.714844 136.035156 166.492188 127.332031 C 165.773438 125.414062 163.546875 124.097656 161.59375 125.339844 C 152.148438 131.375 140.292969 129.105469 132.378906 121.722656 Z M 388.839844 144.132812 C 385.730469 158.839844 372.195312 170.964844 363.203125 182.175781 C 341.421875 209.328125 332.398438 243.011719 317.570312 273.910156 C 303.878906 302.410156 280.230469 334.882812 245.738281 335.371094 C 252.28125 312.550781 256.109375 288.355469 262.703125 266.515625 C 278.035156 215.476562 313.253906 171.335938 359.105469 144.320312 C 362.308594 142.433594 360.144531 137.859375 357.03125 138.242188 C 356.816406 138.1875 356.597656 138.148438 356.378906 138.128906 C 344.128906 137.207031 331.332031 135.171875 319.796875 130.796875 C 314.566406 128.867188 309.859375 126.058594 305.671875 122.375 C 301.253906 118.359375 298.722656 113.457031 295.707031 108.425781 C 282.855469 87.070312 258.441406 96.558594 239.761719 103.726562 C 227.503906 108.425781 214.09375 113.496094 200.757812 110.988281 C 189.246094 108.828125 180.015625 100.429688 168.117188 99.507812 C 143.652344 97.609375 124.914062 119.800781 108.753906 134.820312 C 103.214844 140.003906 97.34375 144.910156 92.066406 150.378906 C 88.550781 154.027344 86.113281 158.394531 87.597656 163.578125 C 89.078125 168.765625 93.613281 172.363281 97.75 175.546875 C 101.070312 178.109375 103.828125 180.464844 105.371094 184.488281 C 106.1875 186.800781 106.855469 189.15625 107.382812 191.550781 C 103.582031 196.199219 99.925781 200.957031 96.410156 205.832031 L 82.007812 186.726562 C 76.945312 180.007812 64.65625 169.167969 72.671875 160.882812 C 75.960938 157.480469 80.6875 155.800781 84.746094 153.5625 C 88.5 151.46875 92.027344 149.046875 95.332031 146.300781 C 101.703125 140.886719 107.214844 134.703125 111.863281 127.757812 C 132.359375 98.09375 139.503906 53.085938 175.679688 37.121094 C 193.570312 29.210938 214.996094 34.011719 224.621094 51.640625 L 222.351562 53.71875 C 220.160156 55.792969 223.386719 58.902344 225.617188 56.984375 C 238.53125 46.125 252.023438 34.167969 268.617188 29.480469 C 282.636719 25.539062 299.449219 27.03125 309.59375 38.535156 C 319.738281 50.035156 321.449219 66.421875 328.34375 79.613281 C 335.5 93.304688 346.359375 104.796875 358.285156 114.449219 C 364.339844 119.449219 370.710938 124.003906 377.402344 128.109375 C 383.769531 131.9375 390.625 135.660156 388.820312 144.132812 Z M 388.839844 144.132812 " fill-opacity="1" fill-rule="nonzero"/><path fill="#ff3131" d="M 236.953125 55.273438 C 239.816406 52.417969 242.925781 49.867188 246.285156 47.617188 C 251.039062 44.410156 256.136719 41.90625 261.582031 40.109375 C 267.027344 38.3125 272.617188 37.289062 278.34375 37.039062 C 282.375 36.855469 286.386719 37.058594 290.375 37.652344 C 291.007812 37.746094 291.113281 37.289062 290.480469 37.132812 C 286.496094 36.066406 282.445312 35.496094 278.324219 35.410156 C 275.363281 35.335938 272.421875 35.511719 269.492188 35.945312 C 266.5625 36.375 263.695312 37.054688 260.882812 37.984375 C 258.070312 38.910156 255.359375 40.070312 252.75 41.464844 C 250.136719 42.859375 247.667969 44.46875 245.332031 46.289062 C 242.070312 48.816406 239.15625 51.691406 236.589844 54.917969 C 236.144531 55.386719 236.496094 55.6875 236.953125 55.273438 Z M 236.953125 55.273438 " fill-opacity="1" fill-rule="nonzero"/><path fill="#ff3131" d="M 272.390625 42.828125 C 270.097656 43.5625 267.902344 44.519531 265.804688 45.699219 C 265.726562 45.722656 265.671875 45.769531 265.636719 45.84375 C 265.601562 45.917969 265.601562 45.996094 265.632812 46.070312 C 265.667969 46.144531 265.722656 46.195312 265.800781 46.21875 C 265.878906 46.242188 265.953125 46.230469 266.023438 46.1875 C 268.25 45.457031 270.507812 44.859375 272.804688 44.402344 C 276.054688 43.785156 279.332031 43.4375 282.636719 43.367188 C 285.945312 43.296875 289.238281 43.496094 292.511719 43.96875 C 294.824219 44.304688 297.105469 44.785156 299.355469 45.410156 C 299.71875 45.503906 299.894531 45.078125 299.554688 44.910156 C 297.402344 43.828125 295.160156 42.976562 292.832031 42.351562 C 289.476562 41.433594 286.058594 41.015625 282.578125 41.097656 C 279.097656 41.179688 275.703125 41.753906 272.390625 42.828125 Z M 272.390625 42.828125 " fill-opacity="1" fill-rule="nonzero"/><path fill="#ff3131" d="M 276.144531 48.894531 C 275.976562 48.933594 275.910156 49.039062 275.941406 49.207031 C 275.976562 49.378906 276.078125 49.449219 276.25 49.421875 C 280.722656 49.105469 285.191406 49.140625 289.660156 49.527344 C 294.125 49.902344 298.539062 50.621094 302.894531 51.683594 C 303.042969 51.710938 303.144531 51.65625 303.195312 51.515625 C 303.25 51.371094 303.210938 51.261719 303.082031 51.1875 C 301.027344 50.097656 298.882812 49.226562 296.652344 48.570312 C 294.421875 47.914062 292.148438 47.488281 289.832031 47.289062 C 287.515625 47.09375 285.203125 47.128906 282.890625 47.398438 C 280.582031 47.671875 278.324219 48.167969 276.113281 48.894531 Z M 276.144531 48.894531 " fill-opacity="1" fill-rule="nonzero"/><path fill="#ff3131" d="M 305.070312 57.679688 C 305.210938 57.6875 305.304688 57.625 305.351562 57.492188 C 305.394531 57.359375 305.363281 57.25 305.246094 57.171875 C 303.210938 56.1875 301.105469 55.390625 298.929688 54.773438 C 296.753906 54.160156 294.539062 53.738281 292.292969 53.507812 C 290.042969 53.28125 287.789062 53.246094 285.535156 53.410156 C 283.28125 53.574219 281.054688 53.933594 278.863281 54.484375 C 278.714844 54.527344 278.652344 54.621094 278.667969 54.773438 C 278.6875 54.925781 278.773438 55.007812 278.925781 55.011719 C 281.539062 55.011719 286.476562 55.148438 292.066406 55.730469 C 297.65625 56.308594 302.519531 57.160156 305.070312 57.679688 Z M 305.070312 57.679688 " fill-opacity="1" fill-rule="nonzero"/><path fill="#ff3131" d="M 302.042969 66.496094 C 302.25 66.585938 302.519531 66.214844 302.34375 66.058594 C 301.015625 64.796875 299.554688 63.710938 297.960938 62.800781 C 296.371094 61.894531 294.691406 61.1875 292.929688 60.6875 C 291.167969 60.1875 289.371094 59.902344 287.539062 59.839844 C 285.707031 59.773438 283.894531 59.929688 282.097656 60.300781 C 281.871094 60.355469 281.902344 60.8125 282.097656 60.84375 C 289.054688 61.609375 295.691406 63.492188 302.011719 66.496094 Z M 302.042969 66.496094 " fill-opacity="1" fill-rule="nonzero"/><path fill="#ff3131" d="M 302.644531 74.011719 C 302.863281 74.066406 303.050781 73.640625 302.851562 73.527344 C 299.933594 71.707031 296.824219 70.324219 293.519531 69.378906 C 290.207031 68.449219 286.832031 67.992188 283.394531 68 C 283.175781 68 283.105469 68.453125 283.3125 68.527344 C 285.210938 69.160156 288.789062 70.351562 292.90625 71.523438 C 297.023438 72.695312 300.707031 73.558594 302.644531 74.011719 Z M 302.644531 74.011719 " fill-opacity="1" fill-rule="nonzero"/><path fill="#ff3131" d="M 298.414062 79.355469 C 298.546875 79.355469 298.777344 78.980469 298.671875 78.886719 C 297.132812 77.410156 295.367188 76.296875 293.371094 75.539062 C 291.363281 74.800781 289.289062 74.492188 287.148438 74.613281 C 287.003906 74.613281 286.910156 75.070312 287.035156 75.132812 C 290.628906 77.058594 294.414062 78.464844 298.390625 79.355469 Z M 298.414062 79.355469 " fill-opacity="1" fill-rule="nonzero"/><path fill="#ff3131" d="M 291.484375 82.332031 C 290.296875 81.792969 289.046875 81.515625 287.742188 81.5 C 287.648438 81.5 287.449219 81.90625 287.511719 81.980469 C 288.339844 83 289.347656 83.792969 290.535156 84.355469 C 291.722656 84.917969 292.972656 85.199219 294.285156 85.195312 C 294.378906 85.195312 294.574219 84.777344 294.511719 84.707031 C 293.667969 83.703125 292.660156 82.910156 291.484375 82.332031 Z M 291.484375 82.332031 " fill-opacity="1" fill-rule="nonzero"/><path fill="#ff3131" d="M 326.851562 124.582031 C 324.191406 123.3125 321.613281 121.894531 319.113281 120.332031 C 311.996094 115.863281 305.753906 110.394531 300.394531 103.925781 C 298.507812 101.65625 296.761719 99.289062 295.144531 96.820312 C 294.886719 96.4375 294.480469 96.644531 294.679688 97.078125 C 295.921875 99.816406 297.390625 102.429688 299.085938 104.910156 C 301.546875 108.476562 304.398438 111.695312 307.644531 114.566406 C 310.917969 117.402344 314.488281 119.796875 318.355469 121.753906 C 321.039062 123.113281 323.824219 124.222656 326.707031 125.082031 C 327.109375 125.226562 327.277344 124.761719 326.851562 124.582031 Z M 326.851562 124.582031 " fill-opacity="1" fill-rule="nonzero"/><path fill="#ff3131" d="M 365.195312 137.277344 C 365.285156 137.722656 365.753906 137.714844 365.722656 137.195312 C 365.585938 135.75 365.03125 134.488281 364.0625 133.410156 C 362.820312 131.992188 361.316406 130.957031 359.550781 130.296875 C 357.683594 129.5625 355.671875 129.0625 353.609375 128.421875 C 351.546875 127.777344 349.367188 127.050781 347.148438 126.253906 C 340.214844 123.777344 333.503906 120.800781 327.015625 117.3125 C 326.59375 117.085938 326.34375 117.480469 326.738281 117.769531 C 332.773438 122.289062 339.34375 125.816406 346.441406 128.359375 C 348.714844 129.179688 350.964844 129.851562 353.101562 130.433594 C 355.238281 131.015625 357.3125 131.347656 359.054688 131.875 C 360.660156 132.289062 362.085938 133.042969 363.335938 134.136719 C 364.277344 134.992188 364.894531 136.039062 365.195312 137.277344 Z M 365.195312 137.277344 " fill-opacity="1" fill-rule="nonzero"/><path fill="#ff3131" d="M 370.066406 142.390625 C 370.066406 142.503906 370.554688 142.558594 370.597656 142.441406 C 370.773438 142.019531 370.914062 141.585938 371.011719 141.140625 C 371.113281 140.691406 371.171875 140.242188 371.1875 139.785156 C 371.207031 139.324219 371.183594 138.871094 371.117188 138.417969 C 371.054688 137.964844 370.949219 137.519531 370.800781 137.085938 C 370.65625 136.652344 370.472656 136.234375 370.253906 135.832031 C 370.03125 135.433594 369.777344 135.054688 369.488281 134.699219 C 369.199219 134.34375 368.878906 134.019531 368.53125 133.722656 C 368.183594 133.425781 367.808594 133.160156 367.414062 132.933594 C 367.320312 132.871094 366.976562 133.191406 367.019531 133.296875 C 367.445312 134.238281 368.054688 135.941406 368.6875 137.796875 C 369.320312 139.652344 369.882812 141.355469 370.066406 142.390625 Z M 370.066406 142.390625 " fill-opacity="1" fill-rule="nonzero"/><path fill="#ff3131" d="M 374.652344 142.921875 C 374.652344 143.003906 375.148438 143.042969 375.191406 142.921875 C 375.355469 142.582031 375.484375 142.230469 375.582031 141.867188 C 375.679688 141.503906 375.742188 141.132812 375.773438 140.757812 C 375.800781 140.382812 375.796875 140.007812 375.757812 139.632812 C 375.714844 139.257812 375.640625 138.890625 375.535156 138.53125 C 375.425781 138.171875 375.285156 137.824219 375.113281 137.488281 C 374.9375 137.152344 374.738281 136.839844 374.503906 136.542969 C 374.273438 136.246094 374.015625 135.972656 373.734375 135.722656 C 373.453125 135.472656 373.148438 135.25 372.828125 135.058594 C 372.742188 135.007812 372.382812 135.296875 372.402344 135.390625 C 372.621094 136.21875 372.941406 137.671875 373.386719 139.175781 C 373.832031 140.679688 374.382812 142.101562 374.652344 142.921875 Z M 374.652344 142.921875 " fill-opacity="1" fill-rule="nonzero"/><path fill="#ff3131" d="M 378.800781 137.027344 C 378.613281 136.988281 378.4375 137.019531 378.273438 137.121094 C 377.925781 138.222656 377.84375 139.34375 378.023438 140.484375 C 378.257812 141.609375 378.734375 142.621094 379.453125 143.523438 C 379.644531 143.5625 379.820312 143.53125 379.984375 143.429688 C 380.164062 142.890625 380.277344 142.335938 380.316406 141.765625 C 380.355469 141.199219 380.324219 140.636719 380.222656 140.074219 C 380.117188 139.515625 379.945312 138.976562 379.703125 138.460938 C 379.464844 137.945312 379.164062 137.46875 378.800781 137.027344 Z M 378.800781 137.027344 " fill-opacity="1" fill-rule="nonzero"/><path fill="#ff3131" d="M 382.441406 138.449219 C 382.261719 138.441406 382.085938 138.476562 381.921875 138.554688 C 381.699219 138.859375 381.546875 139.191406 381.460938 139.558594 C 381.375 139.925781 381.367188 140.292969 381.433594 140.664062 C 381.5 141.035156 381.636719 141.378906 381.84375 141.691406 C 382.050781 142.007812 382.3125 142.265625 382.628906 142.472656 C 382.8125 142.480469 382.988281 142.449219 383.15625 142.378906 C 383.375 142.074219 383.527344 141.738281 383.609375 141.371094 C 383.691406 141.003906 383.699219 140.632812 383.632812 140.265625 C 383.566406 139.894531 383.425781 139.550781 383.222656 139.234375 C 383.015625 138.921875 382.753906 138.660156 382.441406 138.449219 Z M 382.441406 138.449219 " fill-opacity="1" fill-rule="nonzero"/><path fill="#ff3131" d="M 355.726562 151.207031 C 353.195312 152.730469 349.503906 155.066406 345.351562 158.1875 C 335.707031 165.375 327.289062 173.792969 320.097656 183.441406 C 316.988281 187.589844 314.632812 191.28125 313.097656 193.8125 C 312.757812 194.382812 313.097656 194.632812 313.542969 194.113281 C 325.847656 178.085938 340.023438 163.933594 356.066406 151.652344 C 356.554688 151.238281 356.296875 150.863281 355.726562 151.207031 Z M 355.726562 151.207031 " fill-opacity="1" fill-rule="nonzero"/><path fill="#ff3131" d="M 270.246094 269.699219 C 272.246094 264.679688 276.144531 255.097656 280.925781 244.246094 C 285.707031 233.398438 290.125 224.035156 292.46875 219.167969 C 292.730469 218.621094 292.335938 218.390625 292.003906 218.898438 C 281.917969 234.605469 274.496094 251.484375 269.738281 269.53125 C 269.582031 270.113281 270.015625 270.257812 270.246094 269.699219 Z M 270.246094 269.699219 " fill-opacity="1" fill-rule="nonzero"/><path fill="#ff3131" d="M 264.445312 287.992188 C 268.589844 284.007812 272.117188 279.535156 275.035156 274.582031 C 277.953125 269.628906 280.152344 264.375 281.632812 258.820312 C 281.671875 258.746094 281.675781 258.675781 281.648438 258.597656 C 281.621094 258.523438 281.570312 258.46875 281.496094 258.441406 C 281.417969 258.410156 281.347656 258.414062 281.273438 258.449219 C 281.203125 258.488281 281.15625 258.542969 281.132812 258.621094 C 279.671875 261.609375 276.777344 267.242188 273.117188 273.453125 C 269.457031 279.664062 265.929688 284.921875 264.042969 287.652344 C 263.835938 287.960938 264.175781 288.261719 264.445312 287.992188 Z M 264.445312 287.992188 " fill-opacity="1" fill-rule="nonzero"/><path fill="#ff3131" d="M 275.328125 286.820312 C 279.308594 280.988281 282.421875 274.71875 284.660156 268.019531 C 284.816406 267.59375 284.390625 267.417969 284.171875 267.8125 C 280.957031 273.921875 277.394531 279.824219 273.480469 285.515625 C 269.578125 291.21875 265.363281 296.675781 260.828125 301.890625 C 260.527344 302.234375 260.828125 302.566406 261.199219 302.273438 C 266.617188 297.769531 271.328125 292.621094 275.328125 286.820312 Z M 275.328125 286.820312 " fill-opacity="1" fill-rule="nonzero"/><path fill="#ff3131" d="M 277.007812 296.15625 C 281.496094 289.800781 285.386719 283.101562 288.683594 276.054688 C 288.902344 275.601562 288.5 275.371094 288.21875 275.796875 C 285.738281 279.582031 280.957031 286.78125 275.179688 294.859375 C 269.40625 302.9375 264.25 309.875 261.5 313.515625 C 261.191406 313.921875 261.5 314.234375 261.894531 313.878906 C 267.460938 308.421875 272.496094 302.515625 277.007812 296.15625 Z M 277.007812 296.15625 " fill-opacity="1" fill-rule="nonzero"/><path fill="#ff3131" d="M 290.085938 282.671875 C 286.347656 289.621094 282.25 296.34375 277.785156 302.84375 C 273.3125 309.332031 268.5 315.554688 263.347656 321.511719 C 263.015625 321.917969 263.347656 322.238281 263.730469 321.898438 C 269.777344 316.625 275.074219 310.683594 279.621094 304.070312 C 284.164062 297.457031 287.816406 290.382812 290.574219 282.847656 C 290.757812 282.402344 290.332031 282.214844 290.085938 282.671875 Z M 290.085938 282.671875 " fill-opacity="1" fill-rule="nonzero"/><path fill="#ff3131" d="M 293.507812 290.367188 C 292.085938 292.609375 289.359375 296.882812 286.425781 301.828125 C 283.488281 306.777344 280.957031 311.164062 279.652344 313.484375 C 279.59375 313.617188 279.621094 313.726562 279.738281 313.8125 C 279.855469 313.898438 279.96875 313.894531 280.078125 313.796875 C 283.242188 310.496094 286.007812 306.890625 288.375 302.980469 C 290.703125 299.054688 292.585938 294.925781 294.027344 290.597656 C 294.058594 290.523438 294.058594 290.453125 294.03125 290.378906 C 294.003906 290.308594 293.953125 290.253906 293.882812 290.222656 C 293.808594 290.191406 293.738281 290.191406 293.664062 290.21875 C 293.589844 290.246094 293.539062 290.296875 293.507812 290.367188 Z M 293.507812 290.367188 " fill-opacity="1" fill-rule="nonzero"/><path fill="#ff3131" d="M 297.035156 294.664062 C 294.066406 298.199219 292.148438 302.234375 291.277344 306.765625 C 291.277344 306.910156 291.660156 307.109375 291.765625 306.992188 C 293.210938 305.246094 294.421875 303.351562 295.40625 301.308594 C 296.355469 299.253906 297.046875 297.113281 297.480469 294.890625 C 297.542969 294.746094 297.128906 294.546875 297.035156 294.664062 Z M 297.035156 294.664062 " fill-opacity="1" fill-rule="nonzero"/><path fill="#ff3131" d="M 305.515625 217.332031 C 308.609375 213.902344 310.683594 209.9375 311.738281 205.4375 C 311.738281 205.292969 311.367188 205.085938 311.261719 205.199219 C 308.160156 208.625 306.085938 212.585938 305.039062 217.085938 C 305.007812 217.230469 305.425781 217.449219 305.515625 217.332031 Z M 305.515625 217.332031 " fill-opacity="1" fill-rule="nonzero"/><path fill="#ff3131" d="M 318.679688 204.371094 C 318.746094 204.214844 318.707031 204.101562 318.554688 204.023438 C 318.40625 203.945312 318.289062 203.976562 318.203125 204.121094 C 312.441406 212.660156 308.085938 221.867188 305.144531 231.738281 C 305.113281 231.886719 305.164062 231.988281 305.300781 232.046875 C 305.4375 232.101562 305.546875 232.070312 305.632812 231.945312 C 307.09375 229.332031 309.832031 224.304688 312.640625 218.390625 C 315.453125 212.480469 317.589844 207.160156 318.679688 204.371094 Z M 318.679688 204.371094 " fill-opacity="1" fill-rule="nonzero"/><path fill="#ff3131" d="M 320.785156 209.992188 C 318.347656 213.925781 316.148438 217.988281 314.1875 222.175781 C 312.246094 226.378906 310.5625 230.683594 309.136719 235.089844 C 309.109375 235.230469 309.160156 235.328125 309.289062 235.386719 C 309.417969 235.445312 309.527344 235.417969 309.613281 235.308594 C 312.0625 231.378906 314.257812 227.316406 316.210938 223.121094 C 318.148438 218.917969 319.835938 214.617188 321.269531 210.21875 C 321.332031 210.0625 321.289062 209.949219 321.132812 209.875 C 320.980469 209.804688 320.863281 209.84375 320.785156 209.992188 Z M 320.785156 209.992188 " fill-opacity="1" fill-rule="nonzero"/><path fill="#ff3131" d="M 316.914062 237.808594 C 320.90625 230.917969 323.535156 223.546875 324.796875 215.683594 C 324.796875 215.425781 324.394531 215.289062 324.289062 215.519531 C 322.597656 219.054688 321.089844 222.667969 319.765625 226.355469 C 318.464844 230.050781 317.351562 233.800781 316.429688 237.609375 C 316.367188 237.808594 316.789062 238.003906 316.914062 237.808594 Z M 316.914062 237.808594 " fill-opacity="1" fill-rule="nonzero"/><path fill="#ff3131" d="M 327.007812 222.996094 C 326.738281 224.367188 326.167969 226.855469 325.460938 229.613281 C 324.757812 232.371094 324.101562 234.800781 323.699219 236.179688 C 323.699219 236.324219 324.050781 236.5625 324.15625 236.449219 C 324.996094 235.566406 325.714844 234.59375 326.300781 233.527344 C 326.890625 232.460938 327.335938 231.335938 327.632812 230.15625 C 327.929688 228.972656 328.070312 227.773438 328.054688 226.554688 C 328.042969 225.335938 327.871094 224.140625 327.546875 222.964844 C 327.503906 222.832031 327.046875 222.851562 327.007812 222.996094 Z M 327.007812 222.996094 " fill-opacity="1" fill-rule="nonzero"/><path fill="#ff3131" d="M 331.351562 226.273438 C 330.601562 227.351562 330.097656 228.535156 329.839844 229.820312 C 329.632812 231.113281 329.691406 232.398438 330.003906 233.667969 C 330.003906 233.75 330.480469 233.835938 330.53125 233.761719 C 331.285156 232.6875 331.785156 231.503906 332.035156 230.214844 C 332.25 228.925781 332.195312 227.644531 331.882812 226.378906 C 331.851562 226.285156 331.402344 226.203125 331.351562 226.273438 Z M 331.351562 226.273438 " fill-opacity="1" fill-rule="nonzero"/><path fill="#ff3131" d="M 378.4375 152.078125 C 375.148438 156 368.886719 163.570312 361.917969 172.40625 C 354.945312 181.242188 349.046875 189.0625 346.027344 193.210938 C 345.683594 193.675781 346.027344 193.976562 346.433594 193.5625 C 349.988281 189.882812 356.710938 182.664062 363.710938 173.796875 C 370.710938 164.929688 376.15625 156.703125 378.90625 152.390625 C 379.214844 151.902344 378.800781 151.632812 378.4375 152.078125 Z M 378.4375 152.078125 " fill-opacity="1" fill-rule="nonzero"/><path fill="#ff3131" d="M 322.578125 250.617188 C 321.09375 253.652344 318.265625 259.484375 315.140625 266.171875 C 312.019531 272.863281 309.386719 278.804688 308.015625 281.90625 C 307.96875 281.972656 307.949219 282.042969 307.96875 282.125 C 307.984375 282.203125 308.027344 282.265625 308.101562 282.304688 C 308.171875 282.34375 308.246094 282.351562 308.324219 282.320312 C 308.402344 282.292969 308.453125 282.242188 308.484375 282.164062 C 315.207031 272.570312 320.070312 262.105469 323.074219 250.78125 C 323.121094 250.707031 323.128906 250.628906 323.101562 250.546875 C 323.070312 250.464844 323.015625 250.410156 322.933594 250.382812 C 322.847656 250.355469 322.773438 250.367188 322.699219 250.414062 C 322.625 250.460938 322.585938 250.527344 322.578125 250.617188 Z M 322.578125 250.617188 " fill-opacity="1" fill-rule="nonzero"/><path fill="#ff3131" d="M 188.714844 41.789062 C 190.917969 41.746094 193.113281 41.851562 195.300781 42.113281 C 198.386719 42.496094 201.410156 43.15625 204.375 44.09375 C 207.34375 45.042969 210.195312 46.261719 212.933594 47.742188 C 214.855469 48.800781 216.699219 49.980469 218.460938 51.289062 C 218.589844 51.382812 218.710938 51.371094 218.816406 51.253906 C 218.925781 51.136719 218.929688 51.015625 218.824219 50.894531 C 217.304688 49.195312 215.617188 47.679688 213.761719 46.351562 C 211.082031 44.429688 208.171875 42.96875 205.027344 41.964844 C 201.882812 40.960938 198.664062 40.46875 195.363281 40.484375 C 193.085938 40.492188 190.835938 40.746094 188.613281 41.25 C 188.539062 41.265625 188.480469 41.304688 188.4375 41.367188 C 188.394531 41.429688 188.382812 41.496094 188.394531 41.570312 C 188.410156 41.644531 188.449219 41.703125 188.511719 41.746094 C 188.574219 41.789062 188.640625 41.804688 188.714844 41.789062 Z M 188.714844 41.789062 " fill-opacity="1" fill-rule="nonzero"/><path fill="#ff3131" d="M 187.347656 48.011719 C 191.640625 48.183594 195.902344 48.648438 200.136719 49.402344 C 204.355469 50.152344 208.503906 51.1875 212.582031 52.515625 C 212.726562 52.5625 212.835938 52.515625 212.90625 52.378906 C 212.972656 52.238281 212.945312 52.125 212.820312 52.035156 C 210.953125 50.832031 208.988281 49.820312 206.921875 49.007812 C 204.855469 48.191406 202.726562 47.589844 200.542969 47.199219 C 198.355469 46.804688 196.152344 46.632812 193.929688 46.679688 C 191.710938 46.726562 189.515625 46.992188 187.347656 47.472656 C 187.273438 47.472656 187.210938 47.5 187.15625 47.550781 C 187.105469 47.605469 187.078125 47.667969 187.078125 47.742188 C 187.078125 47.816406 187.105469 47.882812 187.15625 47.933594 C 187.210938 47.984375 187.273438 48.011719 187.347656 48.011719 Z M 187.347656 48.011719 " fill-opacity="1" fill-rule="nonzero"/><path fill="#ff3131" d="M 179.660156 55.011719 C 188.519531 53.511719 197.335938 53.726562 206.109375 55.65625 C 206.253906 55.675781 206.351562 55.617188 206.398438 55.480469 C 206.449219 55.339844 206.410156 55.234375 206.285156 55.160156 C 204.59375 54.304688 202.835938 53.613281 201.015625 53.085938 C 198.386719 52.320312 195.703125 51.898438 192.96875 51.820312 C 190.234375 51.761719 187.539062 52.054688 184.878906 52.691406 C 183.035156 53.128906 181.242188 53.730469 179.507812 54.496094 C 179.382812 54.570312 179.34375 54.675781 179.382812 54.8125 C 179.425781 54.953125 179.519531 55.019531 179.660156 55.011719 Z M 179.660156 55.011719 " fill-opacity="1" fill-rule="nonzero"/><path fill="#ff3131" d="M 203.472656 60.5625 C 199.460938 59.492188 195.375 59.046875 191.226562 59.222656 C 187.074219 59.402344 183.042969 60.191406 179.132812 61.597656 C 179.003906 61.664062 178.957031 61.765625 178.988281 61.90625 C 179.015625 62.046875 179.105469 62.121094 179.246094 62.128906 C 181.632812 61.960938 186.164062 61.683594 191.320312 61.484375 C 196.472656 61.289062 201.007812 61.164062 203.402344 61.132812 C 203.671875 61.082031 203.734375 60.625 203.472656 60.5625 Z M 203.472656 60.5625 " fill-opacity="1" fill-rule="nonzero"/><path fill="#ff3131" d="M 198.953125 65.3125 C 195.515625 64.488281 192.042969 64.277344 188.53125 64.679688 C 185.019531 65.082031 181.683594 66.074219 178.519531 67.65625 C 178.3125 67.757812 178.449219 68.195312 178.675781 68.164062 C 180.6875 67.882812 184.484375 67.398438 188.789062 66.910156 C 193.09375 66.421875 196.890625 66.027344 198.910156 65.871094 C 199.140625 65.832031 199.171875 65.363281 198.953125 65.3125 Z M 198.953125 65.3125 " fill-opacity="1" fill-rule="nonzero"/><path fill="#ff3131" d="M 194.605469 69.648438 C 191.769531 69.300781 188.945312 69.390625 186.132812 69.90625 C 183.328125 70.445312 180.671875 71.398438 178.160156 72.757812 C 177.992188 72.851562 178.160156 73.289062 178.3125 73.265625 C 179.960938 73.101562 183.074219 72.757812 186.546875 72.09375 C 190.023438 71.429688 193.050781 70.632812 194.648438 70.175781 C 194.804688 70.125 194.773438 69.667969 194.605469 69.648438 Z M 194.605469 69.648438 " fill-opacity="1" fill-rule="nonzero"/><path fill="#ff3131" d="M 193.3125 75.445312 C 190.847656 75.28125 188.398438 75.382812 185.957031 75.753906 C 183.519531 76.15625 181.152344 76.824219 178.863281 77.757812 C 178.707031 77.820312 178.78125 78.265625 178.945312 78.277344 C 181.414062 78.445312 183.867188 78.34375 186.308594 77.964844 C 188.742188 77.558594 191.105469 76.898438 193.394531 75.972656 C 193.570312 75.910156 193.476562 75.453125 193.3125 75.445312 Z M 193.3125 75.445312 " fill-opacity="1" fill-rule="nonzero"/><path fill="#ff3131" d="M 189.164062 80.929688 C 187.261719 80.785156 185.386719 80.929688 183.53125 81.355469 C 181.675781 81.785156 179.925781 82.480469 178.28125 83.441406 C 178.167969 83.503906 178.28125 83.949219 178.40625 83.960938 C 180.300781 84.085938 182.175781 83.945312 184.027344 83.535156 C 185.878906 83.097656 187.628906 82.40625 189.277344 81.460938 C 189.421875 81.386719 189.285156 80.941406 189.164062 80.929688 Z M 189.164062 80.929688 " fill-opacity="1" fill-rule="nonzero"/><path fill="#ff3131" d="M 222.414062 65.644531 C 222.515625 65.230469 222.089844 65.074219 221.902344 65.46875 C 220.316406 68.953125 217.371094 75.703125 214.5625 83.660156 C 211.75 91.613281 209.78125 98.71875 208.816406 102.429688 C 208.703125 102.84375 209.136719 103 209.3125 102.605469 C 210.910156 99.113281 213.847656 92.359375 216.667969 84.40625 C 219.488281 76.449219 221.449219 69.386719 222.414062 65.644531 Z M 222.414062 65.644531 " fill-opacity="1" fill-rule="nonzero"/><path fill="#ff3131" d="M 219.851562 87.195312 C 218.765625 88.960938 217.855469 90.816406 217.125 92.753906 C 216.414062 94.703125 215.894531 96.699219 215.566406 98.75 C 215.566406 98.882812 215.960938 99.082031 216.054688 98.964844 C 217.421875 97.339844 218.476562 95.527344 219.21875 93.53125 C 219.957031 91.539062 220.34375 89.476562 220.371094 87.351562 C 220.371094 87.207031 219.921875 87.082031 219.851562 87.195312 Z M 219.851562 87.195312 " fill-opacity="1" fill-rule="nonzero"/><path fill="#ff3131" d="M 223.167969 93.46875 C 222.710938 93.804688 222.304688 94.191406 221.945312 94.628906 C 221.585938 95.070312 221.292969 95.546875 221.058594 96.0625 C 220.824219 96.578125 220.660156 97.117188 220.566406 97.675781 C 220.472656 98.234375 220.453125 98.796875 220.503906 99.359375 C 220.503906 99.445312 220.929688 99.628906 220.992188 99.589844 C 221.886719 98.882812 222.578125 98.015625 223.066406 96.984375 C 223.515625 95.933594 223.699219 94.839844 223.617188 93.699219 C 223.648438 93.644531 223.230469 93.429688 223.167969 93.46875 Z M 223.167969 93.46875 " fill-opacity="1" fill-rule="nonzero"/><path fill="#ff3131" d="M 210.816406 78.722656 C 209.84375 80.796875 208.015625 84.800781 206.109375 89.414062 C 204.199219 94.03125 202.6875 98.148438 201.898438 100.316406 C 201.816406 100.554688 202.21875 100.769531 202.375 100.5625 C 204.726562 97.367188 206.660156 93.933594 208.175781 90.265625 C 209.6875 86.597656 210.738281 82.800781 211.324219 78.878906 C 211.367188 78.617188 210.929688 78.492188 210.816406 78.722656 Z M 210.816406 78.722656 " fill-opacity="1" fill-rule="nonzero"/><path fill="#ff3131" d="M 165.867188 49.527344 C 166.199219 49.058594 165.867188 48.769531 165.464844 49.183594 C 159.476562 55.519531 154.121094 62.347656 149.390625 69.667969 C 144.660156 76.992188 140.640625 84.683594 137.328125 92.742188 C 137.109375 93.273438 137.523438 93.46875 137.804688 92.984375 C 140.324219 88.574219 145.230469 80.203125 151.285156 70.859375 C 157.34375 61.515625 162.902344 53.632812 165.867188 49.527344 Z M 165.867188 49.527344 " fill-opacity="1" fill-rule="nonzero"/><path fill="#ff3131" d="M 150.105469 81.730469 C 147.539062 83.667969 145.3125 85.933594 143.421875 88.535156 C 141.535156 91.136719 140.066406 93.957031 139.015625 96.996094 C 138.945312 97.191406 139.347656 97.421875 139.484375 97.253906 C 140.667969 95.8125 142.886719 93.105469 145.230469 89.851562 C 147.574219 86.59375 149.492188 83.628906 150.496094 82.09375 C 150.613281 81.917969 150.269531 81.59375 150.105469 81.730469 Z M 150.105469 81.730469 " fill-opacity="1" fill-rule="nonzero"/><path fill="#ff3131" d="M 170.855469 92.785156 C 168.292969 92.164062 165.695312 91.945312 163.066406 92.121094 C 160.433594 92.296875 157.890625 92.867188 155.433594 93.824219 C 153.730469 94.472656 152.117188 95.300781 150.589844 96.300781 C 150.464844 96.390625 150.4375 96.503906 150.503906 96.640625 C 150.574219 96.78125 150.683594 96.828125 150.828125 96.777344 C 154.855469 95.445312 158.980469 94.640625 163.214844 94.371094 C 167.441406 94.09375 171.636719 94.363281 175.792969 95.179688 C 176.074219 95.179688 176.230469 94.796875 175.96875 94.671875 C 174.332031 93.863281 172.628906 93.234375 170.855469 92.785156 Z M 170.855469 92.785156 " fill-opacity="1" fill-rule="nonzero"/><path fill="#ff3131" d="M 278.105469 85.898438 C 274.78125 85.644531 271.453125 85.644531 268.128906 85.898438 C 263.339844 86.226562 258.640625 87.066406 254.035156 88.417969 C 249.429688 89.773438 245.027344 91.609375 240.820312 93.925781 C 237.894531 95.527344 235.101562 97.34375 232.453125 99.371094 C 232.027344 99.691406 232.285156 100.066406 232.742188 99.816406 C 234.816406 98.664062 237.804688 97.058594 241.546875 95.386719 C 245.816406 93.484375 250.1875 91.867188 254.667969 90.535156 C 259.144531 89.203125 263.691406 88.164062 268.304688 87.421875 C 272.359375 86.800781 275.761719 86.53125 278.105469 86.386719 C 278.613281 86.386719 278.613281 85.929688 278.105469 85.898438 Z M 278.105469 85.898438 " fill-opacity="1" fill-rule="nonzero"/><path fill="#ff3131" d="M 235.261719 131.523438 C 237.304688 132.15625 239.394531 132.570312 241.527344 132.757812 C 243.660156 132.945312 245.785156 132.90625 247.910156 132.636719 C 250.035156 132.367188 252.105469 131.878906 254.125 131.167969 C 256.140625 130.453125 258.0625 129.535156 259.882812 128.410156 C 262.425781 126.867188 264.679688 124.984375 266.644531 122.757812 C 266.957031 122.417969 266.644531 122.085938 266.273438 122.375 C 264.0625 124.195312 261.671875 125.730469 259.09375 126.980469 C 255.46875 128.773438 251.648438 129.925781 247.636719 130.433594 C 243.621094 130.941406 239.636719 130.78125 235.675781 129.945312 C 232.871094 129.375 230.167969 128.480469 227.578125 127.257812 C 227.164062 127.074219 226.925781 127.46875 227.316406 127.726562 C 229.777344 129.390625 232.421875 130.65625 235.261719 131.523438 Z M 235.261719 131.523438 " fill-opacity="1" fill-rule="nonzero"/><path fill="#ff3131" d="M 281.1875 127.945312 C 283.972656 128.820312 286.78125 128.886719 289.609375 128.140625 C 289.785156 128.140625 289.753906 127.632812 289.609375 127.613281 C 286.988281 127.226562 284.421875 126.628906 281.902344 125.816406 C 279.378906 125.023438 276.9375 124.023438 274.578125 122.820312 C 274.414062 122.738281 274.125 123.089844 274.238281 123.234375 C 276.101562 125.472656 278.417969 127.042969 281.1875 127.945312 Z M 281.1875 127.945312 " fill-opacity="1" fill-rule="nonzero"/><path fill="#ff3131" d="M 172.972656 125.796875 C 175.429688 127.617188 178.078125 129.097656 180.917969 130.234375 C 182.957031 131.058594 185.050781 131.695312 187.203125 132.144531 C 189.355469 132.597656 191.53125 132.855469 193.726562 132.921875 C 195.925781 132.992188 198.113281 132.863281 200.289062 132.546875 C 202.460938 132.226562 204.59375 131.71875 206.679688 131.023438 C 209.582031 130.058594 212.316406 128.742188 214.882812 127.082031 C 215.289062 126.824219 215.058594 126.429688 214.625 126.617188 C 211.917969 127.832031 209.121094 128.777344 206.234375 129.457031 C 202.140625 130.410156 197.996094 130.820312 193.796875 130.691406 C 189.597656 130.5625 185.484375 129.898438 181.457031 128.699219 C 178.617188 127.847656 175.886719 126.734375 173.261719 125.351562 C 172.828125 125.175781 172.578125 125.558594 172.972656 125.796875 Z M 172.972656 125.796875 " fill-opacity="1" fill-rule="nonzero"/><path fill="#ff3131" d="M 165.929688 119.667969 L 157.050781 120.011719 L 148.175781 120.425781 C 147.976562 120.425781 147.90625 120.890625 148.101562 120.953125 C 149.558594 121.445312 151.042969 121.796875 152.5625 122.015625 C 154.085938 122.230469 155.609375 122.304688 157.144531 122.238281 C 158.679688 122.175781 160.195312 121.96875 161.691406 121.625 C 163.183594 121.277344 164.636719 120.800781 166.042969 120.1875 C 166.230469 120.101562 166.128906 119.65625 165.929688 119.667969 Z M 165.929688 119.667969 " fill-opacity="1" fill-rule="nonzero"/><path fill="#ff3131" d="M 120.535156 137.796875 C 121.769531 137.839844 122.953125 137.621094 124.09375 137.144531 C 125.210938 136.621094 126.164062 135.882812 126.957031 134.933594 C 126.957031 134.871094 126.820312 134.457031 126.738281 134.445312 C 125.503906 134.40625 124.320312 134.625 123.179688 135.101562 C 122.0625 135.625 121.109375 136.363281 120.316406 137.308594 C 120.265625 137.371094 120.453125 137.785156 120.535156 137.796875 Z M 120.535156 137.796875 " fill-opacity="1" fill-rule="nonzero"/><path fill="#ff3131" d="M 116.480469 144.226562 C 116.335938 144.339844 116.542969 144.753906 116.730469 144.703125 C 122.167969 143.1875 127.082031 140.648438 131.464844 137.089844 C 131.613281 136.976562 131.40625 136.574219 131.226562 136.625 C 128.539062 137.386719 125.949219 138.398438 123.460938 139.664062 C 120.984375 140.957031 118.65625 142.476562 116.480469 144.226562 Z M 116.480469 144.226562 " fill-opacity="1" fill-rule="nonzero"/><path fill="#ff3131" d="M 104.261719 155.429688 C 103.921875 155.644531 104.128906 156.050781 104.511719 155.894531 C 107.902344 154.546875 114.394531 151.828125 121.574219 148.179688 C 128.75 144.527344 134.773438 140.917969 137.875 138.925781 C 138.21875 138.710938 138.011719 138.304688 137.628906 138.449219 C 134.234375 139.808594 127.742188 142.527344 120.566406 146.175781 C 113.390625 149.828125 107.363281 153.476562 104.261719 155.429688 Z M 104.261719 155.429688 " fill-opacity="1" fill-rule="nonzero"/><path fill="#ff3131" d="M 105.414062 160.664062 C 104.988281 160.894531 105.164062 161.320312 105.621094 161.164062 C 112.589844 158.785156 119.363281 155.941406 125.9375 152.628906 C 132.496094 149.308594 138.789062 145.550781 144.824219 141.355469 C 145.21875 141.085938 144.980469 140.691406 144.554688 140.898438 C 140.695312 142.785156 133.3125 146.425781 124.914062 150.679688 C 116.511719 154.929688 109.199219 158.683594 105.414062 160.664062 Z M 105.414062 160.664062 " fill-opacity="1" fill-rule="nonzero"/><path fill="#ff3131" d="M 134.835938 151.363281 C 130.171875 153.402344 125.628906 155.6875 121.210938 158.21875 C 116.804688 160.757812 112.542969 163.523438 108.433594 166.515625 C 108.285156 166.605469 108.253906 166.726562 108.339844 166.878906 C 108.429688 167.027344 108.546875 167.0625 108.703125 166.980469 C 113.367188 164.941406 117.910156 162.652344 122.328125 160.117188 C 126.742188 157.582031 131 154.816406 135.105469 151.820312 C 135.21875 151.71875 135.238281 151.605469 135.160156 151.480469 C 135.085938 151.351562 134.976562 151.3125 134.835938 151.363281 Z M 134.835938 151.363281 " fill-opacity="1" fill-rule="nonzero"/><path fill="#ff3131" d="M 125.691406 160.945312 C 124.402344 161.753906 121.988281 163.257812 119.320312 165.03125 C 116.65625 166.804688 114.355469 168.464844 113.097656 169.355469 C 112.964844 169.460938 113.097656 169.875 113.308594 169.84375 C 114.601562 169.601562 115.859375 169.230469 117.078125 168.734375 C 118.296875 168.238281 119.457031 167.625 120.550781 166.890625 C 121.648438 166.160156 122.65625 165.324219 123.585938 164.390625 C 124.511719 163.453125 125.332031 162.433594 126.054688 161.328125 C 126.15625 161.183594 125.835938 160.851562 125.691406 160.945312 Z M 125.691406 160.945312 " fill-opacity="1" fill-rule="nonzero"/><path fill="#ff3131" d="M 121.335938 168.320312 C 120.070312 168.640625 118.941406 169.21875 117.941406 170.050781 C 116.941406 170.886719 116.171875 171.894531 115.628906 173.078125 C 115.628906 173.164062 115.890625 173.515625 115.972656 173.496094 C 117.238281 173.179688 118.371094 172.601562 119.371094 171.765625 C 120.371094 170.925781 121.140625 169.914062 121.675781 168.722656 C 121.71875 168.628906 121.417969 168.320312 121.335938 168.320312 Z M 121.335938 168.320312 " fill-opacity="1" fill-rule="nonzero"/><path fill="#ff3131" d="M 184.328125 192.785156 C 195.878906 176.628906 209.332031 162.25 224.683594 149.652344 C 225.179688 149.234375 224.910156 148.863281 224.363281 149.214844 C 221.925781 150.792969 218.410156 153.199219 214.394531 156.402344 C 209.808594 160.085938 205.496094 164.066406 201.460938 168.351562 C 197.453125 172.652344 193.765625 177.214844 190.40625 182.039062 C 188.0625 185.386719 185.890625 188.84375 183.894531 192.410156 C 183.5625 193.074219 183.945312 193.3125 184.328125 192.785156 Z M 184.328125 192.785156 " fill-opacity="1" fill-rule="nonzero"/><path fill="#ff3131" d="M 208.972656 172.695312 C 208.898438 172.828125 208.921875 172.941406 209.039062 173.035156 C 209.15625 173.128906 209.273438 173.128906 209.386719 173.027344 L 219.976562 162.53125 L 230.492188 151.953125 C 230.589844 151.839844 230.59375 151.722656 230.5 151.605469 C 230.40625 151.488281 230.292969 151.464844 230.160156 151.539062 C 225.894531 154.246094 221.976562 157.382812 218.402344 160.953125 C 214.828125 164.519531 211.683594 168.4375 208.972656 172.695312 Z M 208.972656 172.695312 " fill-opacity="1" fill-rule="nonzero"/><path fill="#ff3131" d="M 218.148438 173.691406 C 218.054688 173.824219 218.070312 173.945312 218.191406 174.050781 C 218.316406 174.15625 218.4375 174.15625 218.554688 174.042969 C 220.703125 172.125 224.777344 168.402344 229.207031 163.941406 C 233.632812 159.484375 237.335938 155.386719 239.246094 153.230469 C 239.332031 153.109375 239.328125 152.996094 239.230469 152.886719 C 239.132812 152.777344 239.019531 152.761719 238.890625 152.835938 C 230.765625 158.582031 223.851562 165.535156 218.148438 173.691406 Z M 218.148438 173.691406 " fill-opacity="1" fill-rule="nonzero"/><path fill="#ff3131" d="M 234.992188 167.011719 C 237.066406 165.507812 241.050781 162.585938 245.363281 158.984375 C 249.679688 155.386719 253.234375 152.003906 255.09375 150.199219 C 255.199219 150.089844 255.207031 149.972656 255.113281 149.851562 C 255.019531 149.726562 254.90625 149.703125 254.769531 149.777344 C 247.023438 154.148438 240.3125 159.761719 234.640625 166.617188 C 234.441406 166.835938 234.765625 167.179688 234.992188 167.011719 Z M 234.992188 167.011719 " fill-opacity="1" fill-rule="nonzero"/><path fill="#ff3131" d="M 240.894531 168.558594 C 240.605469 168.867188 240.894531 169.210938 241.246094 168.960938 C 244.265625 166.734375 250.03125 162.429688 256.511719 157.355469 C 262.996094 152.285156 268.566406 147.730469 271.46875 145.347656 C 271.789062 145.078125 271.53125 144.695312 271.15625 144.902344 C 259.882812 151.269531 249.792969 159.152344 240.894531 168.558594 Z M 240.894531 168.558594 " fill-opacity="1" fill-rule="nonzero"/><path fill="#ff3131" d="M 249.078125 169.429688 C 248.777344 169.6875 249.078125 170.0625 249.386719 169.863281 C 252.4375 168.070312 258.222656 164.523438 264.53125 159.96875 C 270.835938 155.417969 276.011719 151.019531 278.675781 148.695312 C 278.96875 148.425781 278.675781 148.054688 278.367188 148.261719 C 275.316406 150.054688 269.519531 153.601562 263.222656 158.15625 C 256.929688 162.707031 251.730469 167.105469 249.078125 169.429688 Z M 249.078125 169.429688 " fill-opacity="1" fill-rule="nonzero"/><path fill="#ff3131" d="M 262.726562 168.101562 C 262.621094 168.207031 262.613281 168.320312 262.695312 168.441406 C 262.78125 168.566406 262.890625 168.597656 263.027344 168.539062 C 272.398438 163.402344 280.734375 156.929688 288.03125 149.121094 C 288.125 149.007812 288.125 148.890625 288.027344 148.777344 C 287.933594 148.664062 287.820312 148.644531 287.6875 148.71875 C 285.136719 150.480469 280.292969 153.902344 274.933594 158.050781 C 269.570312 162.199219 265.058594 166.070312 262.726562 168.101562 Z M 262.726562 168.101562 " fill-opacity="1" fill-rule="nonzero"/><path fill="#ff3131" d="M 272.328125 167.875 C 272.027344 168.144531 272.328125 168.507812 272.640625 168.308594 C 275.636719 166.515625 281.332031 163.039062 287.710938 158.828125 C 294.089844 154.617188 299.511719 150.730469 302.332031 148.6875 C 302.644531 148.457031 302.417969 148.054688 302.0625 148.21875 C 291.191406 153.316406 281.277344 159.867188 272.328125 167.875 Z M 272.328125 167.875 " fill-opacity="1" fill-rule="nonzero"/><path fill="#ff3131" d="M 282.078125 171.949219 C 281.757812 172.21875 282.078125 172.59375 282.390625 172.386719 C 285.605469 170.527344 291.722656 166.855469 298.421875 162.160156 C 305.125 157.460938 310.640625 152.9375 313.484375 150.53125 C 313.792969 150.261719 313.535156 149.890625 313.171875 150.097656 C 309.957031 151.953125 303.835938 155.625 297.136719 160.324219 C 290.4375 165.019531 284.921875 169.554688 282.078125 171.949219 Z M 282.078125 171.949219 " fill-opacity="1" fill-rule="nonzero"/><path fill="#ff3131" d="M 294.003906 171.273438 C 293.703125 171.535156 294.003906 171.90625 294.316406 171.710938 C 297.375 169.9375 303.195312 166.410156 309.53125 161.890625 C 315.867188 157.367188 321.074219 153 323.75 150.679688 C 324.050781 150.417969 323.75 150.046875 323.4375 150.242188 C 320.328125 152.027344 314.5625 155.542969 308.222656 160.0625 C 301.886719 164.585938 296.679688 168.960938 294.003906 171.273438 Z M 294.003906 171.273438 " fill-opacity="1" fill-rule="nonzero"/><path fill="#ff3131" d="M 317.953125 159.347656 C 313.65625 161.042969 310.03125 163.664062 307.074219 167.210938 C 306.980469 167.324219 307.25 167.695312 307.394531 167.644531 C 311.691406 165.957031 315.3125 163.335938 318.265625 159.785156 C 318.355469 159.667969 318.085938 159.296875 317.953125 159.347656 Z M 317.953125 159.347656 " fill-opacity="1" fill-rule="nonzero"/><path fill="#ff3131" d="M 169.832031 182.964844 C 169.613281 183.367188 170.007812 183.617188 170.277344 183.253906 C 172.722656 180.039062 177.453125 173.917969 182.992188 167.054688 C 188.53125 160.1875 193.476562 154.234375 196.078125 151.15625 C 196.371094 150.8125 196.078125 150.480469 195.707031 150.78125 C 190.421875 155.277344 185.605469 160.230469 181.253906 165.636719 C 176.902344 171.042969 173.09375 176.808594 169.832031 182.933594 Z M 169.832031 182.964844 " fill-opacity="1" fill-rule="nonzero"/><path fill="#ff3131" d="M 176.25 165.207031 C 177.558594 163.984375 180.003906 161.640625 182.566406 158.777344 C 185.128906 155.914062 187.191406 153.238281 188.261719 151.796875 C 188.382812 151.640625 188.074219 151.300781 187.898438 151.402344 C 185.285156 153.035156 182.953125 154.996094 180.902344 157.289062 C 178.847656 159.582031 177.152344 162.113281 175.8125 164.886719 C 175.730469 165.050781 176.09375 165.320312 176.25 165.207031 Z M 176.25 165.207031 " fill-opacity="1" fill-rule="nonzero"/><path fill="#ff3131" d="M 170.492188 161.203125 C 170.421875 161.351562 170.761719 161.652344 170.898438 161.558594 C 174.757812 158.785156 178.089844 155.476562 180.894531 151.640625 C 180.988281 151.507812 180.6875 151.15625 180.554688 151.226562 C 178.390625 152.304688 176.445312 153.6875 174.714844 155.375 C 173.003906 157.101562 171.597656 159.042969 170.492188 161.203125 Z M 170.492188 161.203125 " fill-opacity="1" fill-rule="nonzero"/><path fill="#ff3131" d="M 165.378906 161.410156 C 165.378906 161.566406 165.710938 161.816406 165.835938 161.703125 C 167.539062 160.097656 169.140625 158.394531 170.640625 156.601562 C 172.132812 154.785156 173.515625 152.890625 174.789062 150.917969 C 174.871094 150.78125 174.550781 150.449219 174.414062 150.523438 C 172.316406 151.75 170.496094 153.296875 168.949219 155.167969 C 167.402344 157.042969 166.222656 159.121094 165.410156 161.410156 Z M 165.378906 161.410156 " fill-opacity="1" fill-rule="nonzero"/><path fill="#ff3131" d="M 159.117188 159.554688 C 161.003906 158.152344 162.804688 156.640625 164.507812 155.023438 C 166.203125 153.390625 167.792969 151.660156 169.28125 149.835938 C 169.382812 149.714844 169.105469 149.351562 168.957031 149.414062 C 166.734375 150.40625 164.738281 151.734375 162.964844 153.40625 C 161.210938 155.101562 159.792969 157.039062 158.710938 159.222656 C 158.640625 159.359375 158.992188 159.660156 159.117188 159.554688 Z M 159.117188 159.554688 " fill-opacity="1" fill-rule="nonzero"/><path fill="#ff3131" d="M 159.800781 153.105469 C 161.117188 152.671875 162.289062 151.988281 163.3125 151.054688 C 164.335938 150.125 165.125 149.023438 165.679688 147.753906 C 165.679688 147.671875 165.410156 147.328125 165.320312 147.359375 C 164 147.789062 162.828125 148.46875 161.800781 149.402344 C 160.777344 150.335938 159.988281 151.4375 159.4375 152.710938 C 159.398438 152.761719 159.707031 153.136719 159.800781 153.105469 Z M 159.800781 153.105469 " fill-opacity="1" fill-rule="nonzero"/><path fill="#ff3131" d="M 153.921875 277.382812 C 154.449219 273.804688 155.289062 268.578125 156.597656 262.34375 C 157.902344 256.113281 159.707031 248.863281 162.011719 241.261719 C 164.3125 233.660156 166.894531 226.636719 169.269531 220.734375 C 171.644531 214.835938 173.886719 210.023438 175.492188 206.753906 C 175.835938 206.019531 175.429688 205.800781 175.015625 206.507812 C 173.160156 209.617188 170.546875 214.265625 167.816406 220.082031 C 161.523438 233.453125 157.257812 247.445312 155.019531 262.054688 C 153.984375 268.402344 153.621094 273.710938 153.421875 277.332031 C 153.339844 278.152344 153.796875 278.191406 153.921875 277.382812 Z M 153.921875 277.382812 " fill-opacity="1" fill-rule="nonzero"/><path fill="#ff3131" d="M 288 186.574219 C 280.25 194.878906 273.300781 203.808594 267.15625 213.359375 C 261.007812 222.914062 255.765625 232.941406 251.421875 243.4375 C 251.128906 244.121094 251.546875 244.320312 251.898438 243.675781 C 255.007812 237.847656 261.167969 226.773438 269.03125 214.574219 C 276.894531 202.378906 284.402344 192.171875 288.40625 186.925781 C 288.851562 186.335938 288.5 186.035156 288 186.574219 Z M 288 186.574219 " fill-opacity="1" fill-rule="nonzero"/><path fill="#ff3131" d="M 244.097656 285.328125 C 241.007812 286.339844 238.023438 287.605469 235.148438 289.125 C 232.285156 290.664062 229.574219 292.429688 227.007812 294.421875 C 226.839844 294.546875 227.007812 294.964844 227.253906 294.890625 C 233.507812 292.875 239.21875 289.84375 244.390625 285.792969 C 244.511719 285.671875 244.304688 285.253906 244.097656 285.328125 Z M 244.097656 285.328125 " fill-opacity="1" fill-rule="nonzero"/><path fill="#ff3131" d="M 241.929688 292.433594 C 234.398438 295.085938 227.398438 298.757812 220.929688 303.445312 C 220.710938 303.601562 220.929688 304.007812 221.179688 303.921875 C 224.917969 302.589844 228.550781 301.003906 232.066406 299.164062 C 235.582031 297.320312 238.953125 295.246094 242.179688 292.941406 C 242.398438 292.773438 242.179688 292.347656 241.929688 292.433594 Z M 241.929688 292.433594 " fill-opacity="1" fill-rule="nonzero"/><path fill="#ff3131" d="M 238.984375 301.308594 C 235.160156 302.835938 231.449219 304.605469 227.855469 306.621094 C 224.28125 308.664062 220.851562 310.929688 217.570312 313.414062 C 217.351562 313.578125 217.570312 313.984375 217.839844 313.878906 C 221.660156 312.355469 225.367188 310.585938 228.957031 308.570312 C 232.539062 306.539062 235.96875 304.273438 239.246094 301.777344 C 239.460938 301.609375 239.203125 301.21875 238.984375 301.308594 Z M 238.984375 301.308594 " fill-opacity="1" fill-rule="nonzero"/><path fill="#ff3131" d="M 235.40625 310.136719 C 227.683594 313.871094 220.582031 318.550781 214.105469 324.179688 C 213.992188 324.28125 213.976562 324.398438 214.0625 324.523438 C 214.144531 324.652344 214.253906 324.6875 214.394531 324.625 C 218.242188 322.761719 221.949219 320.660156 225.523438 318.320312 C 229.082031 315.957031 232.476562 313.378906 235.707031 310.582031 C 235.796875 310.472656 235.804688 310.363281 235.726562 310.246094 C 235.648438 310.128906 235.542969 310.09375 235.40625 310.136719 Z M 235.40625 310.136719 " fill-opacity="1" fill-rule="nonzero"/><path fill="#ff3131" d="M 233.902344 320 C 231.300781 321.203125 226.363281 323.535156 220.847656 326.460938 C 215.328125 329.386719 210.628906 332.164062 208.171875 333.636719 C 208.054688 333.726562 208.027344 333.835938 208.089844 333.96875 C 208.15625 334.101562 208.257812 334.152344 208.402344 334.113281 C 213.0625 332.617188 217.554688 330.722656 221.882812 328.429688 C 226.210938 326.128906 230.308594 323.46875 234.171875 320.457031 C 234.285156 320.355469 234.304688 320.242188 234.226562 320.117188 C 234.152344 319.988281 234.042969 319.949219 233.902344 320 Z M 233.902344 320 " fill-opacity="1" fill-rule="nonzero"/><path fill="#ff3131" d="M 232.90625 329.199219 C 230.285156 330.734375 225.265625 333.574219 219.425781 336.605469 C 213.585938 339.632812 208.371094 342.109375 205.609375 343.375 C 205.46875 343.445312 205.421875 343.554688 205.472656 343.703125 C 205.519531 343.851562 205.621094 343.914062 205.777344 343.882812 C 210.90625 342.777344 215.800781 341.011719 220.460938 338.59375 C 225.121094 336.179688 229.378906 333.191406 233.238281 329.632812 C 233.300781 329.589844 233.335938 329.527344 233.34375 329.453125 C 233.355469 329.378906 233.335938 329.3125 233.292969 329.25 C 233.246094 329.191406 233.1875 329.15625 233.109375 329.144531 C 233.035156 329.136719 232.96875 329.152344 232.90625 329.199219 Z M 232.90625 329.199219 " fill-opacity="1" fill-rule="nonzero"/><path fill="#ff3131" d="M 229.070312 338.167969 L 214.054688 344.703125 L 199.066406 351.269531 C 198.988281 351.285156 198.925781 351.324219 198.882812 351.394531 C 198.84375 351.464844 198.835938 351.539062 198.859375 351.617188 C 198.882812 351.695312 198.933594 351.75 199.011719 351.78125 C 199.085938 351.8125 199.160156 351.8125 199.234375 351.777344 C 204.640625 350.605469 209.882812 348.914062 214.957031 346.707031 C 220.015625 344.480469 224.808594 341.777344 229.328125 338.59375 C 229.425781 338.582031 229.492188 338.527344 229.535156 338.441406 C 229.574219 338.355469 229.570312 338.269531 229.519531 338.1875 C 229.46875 338.105469 229.394531 338.0625 229.300781 338.058594 C 229.203125 338.054688 229.128906 338.09375 229.070312 338.167969 Z M 229.070312 338.167969 " fill-opacity="1" fill-rule="nonzero"/><path fill="#ff3131" d="M 228.261719 347.027344 C 224.941406 348.457031 218.597656 351.175781 211.261719 354.058594 C 203.929688 356.941406 197.480469 359.367188 194.078125 360.59375 C 193.703125 360.738281 193.820312 361.183594 194.222656 361.109375 C 200.355469 360.085938 206.3125 358.429688 212.09375 356.132812 C 217.875 353.835938 223.347656 350.957031 228.511719 347.492188 C 228.832031 347.265625 228.636719 346.859375 228.261719 347.027344 Z M 228.261719 347.027344 " fill-opacity="1" fill-rule="nonzero"/><path fill="#ff3131" d="M 222.898438 357.199219 C 218.988281 358.828125 211.492188 361.804688 202.625 364.636719 C 193.757812 367.46875 185.945312 369.46875 181.820312 370.433594 C 181.363281 370.546875 181.425781 370.996094 181.902344 370.964844 C 189.203125 370.410156 196.34375 369.011719 203.3125 366.765625 C 210.285156 364.519531 216.894531 361.492188 223.148438 357.679688 C 223.554688 357.429688 223.347656 357.078125 222.898438 357.199219 Z M 222.898438 357.199219 " fill-opacity="1" fill-rule="nonzero"/><path fill="#ff3131" d="M 214.488281 368.371094 C 202.546875 373.933594 190.042969 377.539062 176.976562 379.1875 C 176.550781 379.25 176.5625 379.707031 176.976562 379.726562 C 180.3125 379.878906 183.640625 379.757812 186.957031 379.363281 C 190.273438 378.96875 193.535156 378.308594 196.742188 377.382812 C 199.953125 376.457031 203.0625 375.273438 206.078125 373.839844 C 209.09375 372.402344 211.972656 370.734375 214.71875 368.828125 C 215.121094 368.589844 214.882812 368.183594 214.488281 368.371094 Z M 214.488281 368.371094 " fill-opacity="1" fill-rule="nonzero"/><path fill="#ff3131" d="M 207.953125 378.378906 C 204.105469 379.1875 196.722656 380.703125 188.25 382.371094 C 179.777344 384.042969 172.390625 385.484375 168.542969 386.179688 C 168.109375 386.261719 168.160156 386.71875 168.597656 386.707031 C 175.363281 386.578125 182.070312 385.863281 188.714844 384.558594 C 195.335938 383.214844 201.796875 381.3125 208.089844 378.855469 C 208.523438 378.730469 208.390625 378.296875 207.953125 378.378906 Z M 207.953125 378.378906 " fill-opacity="1" fill-rule="nonzero"/><path fill="#ff3131" d="M 193.851562 389.164062 C 190.457031 389.734375 183.976562 390.753906 176.53125 391.625 C 169.082031 392.496094 162.539062 393.023438 159.105469 393.25 C 158.722656 393.25 158.703125 393.738281 159.105469 393.789062 C 165.007812 394.515625 170.910156 394.527344 176.8125 393.828125 C 182.714844 393.125 188.449219 391.730469 194.015625 389.640625 C 194.359375 389.539062 194.234375 389.101562 193.851562 389.164062 Z M 193.851562 389.164062 " fill-opacity="1" fill-rule="nonzero"/><path fill="#ff3131" d="M 178.636719 399.027344 C 176.238281 398.851562 171.632812 398.601562 166.386719 398.726562 C 161.140625 398.851562 156.566406 399.339844 154.167969 399.640625 C 154.023438 399.667969 153.953125 399.757812 153.953125 399.90625 C 153.953125 400.050781 154.023438 400.140625 154.167969 400.167969 C 162.378906 401.449219 170.550781 401.246094 178.6875 399.558594 C 178.9375 399.503906 178.90625 399.039062 178.636719 399.027344 Z M 178.636719 399.027344 " fill-opacity="1" fill-rule="nonzero"/><path fill="#ff3131" d="M 167.371094 405.210938 C 164.800781 404.777344 162.210938 404.613281 159.605469 404.722656 C 156.996094 404.847656 154.429688 405.25 151.910156 405.925781 C 151.742188 405.925781 151.761719 406.433594 151.910156 406.464844 C 157.113281 407.371094 162.265625 407.128906 167.363281 405.738281 C 167.558594 405.695312 167.539062 405.242188 167.371094 405.210938 Z M 167.371094 405.210938 " fill-opacity="1" fill-rule="nonzero"/><path fill="#ff3131" d="M 244.597656 278.066406 C 240.589844 279.667969 236.957031 281.882812 233.695312 284.707031 C 233.59375 284.800781 233.789062 285.214844 233.933594 285.183594 C 236.109375 284.769531 238.140625 283.988281 240.03125 282.839844 C 241.921875 281.691406 243.550781 280.246094 244.917969 278.503906 C 245 278.390625 244.730469 278.015625 244.597656 278.066406 Z M 244.597656 278.066406 " fill-opacity="1" fill-rule="nonzero"/><path fill="#ff3131" d="M 245.425781 273.203125 C 244.070312 273.101562 242.75 273.265625 241.464844 273.703125 C 240.191406 274.171875 239.054688 274.863281 238.050781 275.777344 C 237.988281 275.847656 238.144531 276.273438 238.238281 276.285156 C 239.59375 276.386719 240.914062 276.21875 242.199219 275.785156 C 243.476562 275.320312 244.613281 274.628906 245.613281 273.710938 C 245.675781 273.640625 245.519531 273.203125 245.425781 273.203125 Z M 245.425781 273.203125 " fill-opacity="1" fill-rule="nonzero"/><path fill="#ff3131" d="M 242.378906 268.804688 C 241.285156 269.125 240.328125 269.675781 239.503906 270.457031 C 239.441406 270.519531 239.566406 270.953125 239.640625 270.972656 C 240.746094 271.242188 241.851562 271.242188 242.957031 270.972656 C 244.046875 270.65625 245 270.105469 245.820312 269.324219 C 245.882812 269.261719 245.757812 268.828125 245.6875 268.804688 C 244.582031 268.539062 243.480469 268.539062 242.378906 268.804688 Z M 242.378906 268.804688 " fill-opacity="1" fill-rule="nonzero"/><path fill="#ff3131" d="M 78.3125 282.332031 C 79.933594 277.425781 82.410156 270.308594 85.875 261.929688 C 93.800781 242.734375 103.683594 224.601562 115.515625 207.53125 C 120.703125 200.074219 125.328125 194.132812 128.5625 190.128906 C 129.289062 189.21875 128.9375 188.917969 128.160156 189.777344 C 123.222656 195.144531 118.570312 200.746094 114.199219 206.578125 C 101.5625 223.363281 91.617188 241.613281 84.359375 261.328125 C 81.1875 269.894531 79.113281 277.175781 77.804688 282.175781 C 77.503906 283.296875 77.949219 283.441406 78.3125 282.332031 Z M 78.3125 282.332031 " fill-opacity="1" fill-rule="nonzero"/><path fill="#ff3131" d="M 126.15625 391.53125 L 124.011719 391.023438 C 123.253906 390.855469 122.496094 390.542969 121.6875 390.304688 C 119.9375 389.742188 118.226562 389.078125 116.554688 388.316406 C 112.542969 386.421875 108.832031 384.066406 105.414062 381.242188 C 97.8125 375.132812 90.636719 365.859375 85.769531 354.671875 C 80.90625 343.480469 78.78125 332 77.546875 322.25 C 76.3125 312.5 75.917969 304.285156 75.585938 298.695312 C 75.515625 297.441406 75.046875 297.453125 75.046875 298.695312 C 75.046875 304.308594 75.046875 312.519531 75.929688 322.425781 C 76.394531 327.777344 77.191406 333.082031 78.3125 338.335938 C 79.582031 344.238281 81.382812 349.972656 83.71875 355.542969 C 88.738281 367.085938 96.371094 376.5 104.40625 382.507812 C 108.039062 385.28125 111.964844 387.539062 116.191406 389.277344 C 117.929688 389.976562 119.707031 390.566406 121.519531 391.054688 C 122.359375 391.25 123.136719 391.519531 123.917969 391.644531 L 126.125 392.039062 C 127.347656 392.277344 127.410156 391.820312 126.15625 391.53125 Z M 126.15625 391.53125 " fill-opacity="1" fill-rule="nonzero"/><path fill="#ff3131" d="M 154.160156 204.328125 C 154.480469 203.550781 154.066406 203.351562 153.683594 204.101562 C 147.707031 215.414062 142.820312 227.183594 139.027344 239.40625 C 135.234375 251.625 132.597656 264.09375 131.113281 276.804688 C 131.011719 277.632812 131.464844 277.707031 131.644531 276.886719 C 133.148438 269.625 136.300781 255.675781 141.164062 240.066406 C 146.027344 224.460938 151.265625 211.171875 154.160156 204.328125 Z M 154.160156 204.328125 " fill-opacity="1" fill-rule="nonzero"/><path fill="#ff3131" d="M 127.828125 319.625 C 127.773438 319.511719 127.316406 319.542969 127.289062 319.625 C 126.855469 321.328125 126.691406 323.058594 126.800781 324.8125 C 126.929688 326.558594 127.332031 328.242188 128.003906 329.863281 C 128.003906 329.976562 128.5 329.945312 128.53125 329.863281 C 128.984375 328.167969 129.152344 326.441406 129.03125 324.691406 C 128.910156 322.9375 128.507812 321.253906 127.828125 319.636719 Z M 127.828125 319.625 " fill-opacity="1" fill-rule="nonzero"/><path fill="#ff3131" d="M 134.140625 319.894531 C 133.171875 322.667969 132.652344 325.523438 132.578125 328.460938 C 132.527344 331.398438 132.925781 334.277344 133.769531 337.089844 C 133.769531 337.277344 134.289062 337.226562 134.296875 337.039062 C 134.453125 335.339844 134.722656 332.144531 134.804688 328.515625 C 134.890625 324.882812 134.753906 321.679688 134.671875 319.976562 C 134.660156 319.738281 134.203125 319.738281 134.140625 319.894531 Z M 134.140625 319.894531 " fill-opacity="1" fill-rule="nonzero"/><path fill="#ff3131" d="M 140.675781 320.902344 C 140.675781 320.726562 140.1875 320.703125 140.148438 320.902344 C 139.464844 323.457031 139.179688 326.058594 139.285156 328.703125 C 139.394531 331.347656 139.890625 333.914062 140.78125 336.40625 C 140.84375 336.574219 141.296875 336.511719 141.308594 336.332031 C 141.8125 331.167969 141.601562 326.03125 140.675781 320.921875 Z M 140.675781 320.902344 " fill-opacity="1" fill-rule="nonzero"/><path fill="#ff3131" d="M 147.9375 323.296875 C 146.78125 328.136719 146.78125 332.976562 147.9375 337.816406 C 147.9375 337.984375 148.433594 337.984375 148.476562 337.816406 C 149.628906 332.976562 149.628906 328.136719 148.476562 323.296875 C 148.394531 323.140625 147.9375 323.140625 147.9375 323.296875 Z M 147.9375 323.296875 " fill-opacity="1" fill-rule="nonzero"/><path fill="#ff3131" d="M 154.738281 323.296875 C 153.90625 327.898438 154.222656 332.414062 155.695312 336.851562 C 155.695312 336.996094 156.203125 336.964844 156.222656 336.851562 C 156.621094 334.589844 156.746094 332.3125 156.597656 330.019531 C 156.417969 327.726562 155.980469 325.484375 155.277344 323.296875 C 155.195312 323.121094 154.769531 323.152344 154.738281 323.296875 Z M 154.738281 323.296875 " fill-opacity="1" fill-rule="nonzero"/><path fill="#ff3131" d="M 160.121094 324.6875 C 159.527344 325.917969 159.210938 327.21875 159.179688 328.585938 C 159.144531 329.957031 159.398438 331.269531 159.9375 332.527344 C 159.9375 332.621094 160.433594 332.632812 160.476562 332.527344 C 161.070312 331.296875 161.386719 329.996094 161.417969 328.628906 C 161.453125 327.257812 161.199219 325.945312 160.660156 324.6875 C 160.621094 324.605469 160.164062 324.59375 160.121094 324.6875 Z M 160.121094 324.6875 " fill-opacity="1" fill-rule="nonzero"/><path fill="#ff3131" d="M 164.042969 324.199219 C 163.777344 324.65625 163.582031 325.136719 163.453125 325.648438 C 163.328125 326.160156 163.269531 326.675781 163.285156 327.203125 C 163.304688 327.730469 163.390625 328.242188 163.550781 328.742188 C 163.710938 329.246094 163.9375 329.714844 164.230469 330.152344 C 164.40625 330.21875 164.582031 330.21875 164.757812 330.152344 C 165.269531 329.21875 165.527344 328.21875 165.527344 327.15625 C 165.46875 326.089844 165.152344 325.109375 164.582031 324.210938 C 164.53125 324.117188 164.085938 324.136719 164.042969 324.199219 Z M 164.042969 324.199219 " fill-opacity="1" fill-rule="nonzero"/></svg>